<?xml version="1.0" encoding="UTF-8"?>
<svg id="logosandtypes_com" data-name="logosandtypes com" xmlns="http://www.w3.org/2000/svg" viewBox="0 0 150 150">
  <defs>
    <style>
      .cls-1 {
        fill: none;
      }

      .cls-2 {
        fill-rule: evenodd;
      }
    </style>
  </defs>
  <path class="cls-1" d="M0,0H150V150H0V0Z"/>
  <path class="cls-2" d="M113.85,84.09c-1.11,5.29-6.03,18.87-21.74,26.22l-6.31-7.03-10.64,10.6c-6.06-.08-12.01-1.55-17.4-4.29-5.39-2.74-10.07-6.68-13.67-11.5,1.13,.35,2.3,.57,3.48,.65,1.74,.03,3.63-.6,3.63-3.5v-28.61c.02-.74-.12-1.47-.44-2.13-.31-.67-.78-1.26-1.36-1.71-.58-.46-1.26-.78-1.99-.93-.73-.15-1.48-.13-2.2,.05-4.93,1.13-8.86,13.31-8.86,13.31-.06-5.63,1.13-11.2,3.46-16.32,2.34-5.13,5.77-9.69,10.07-13.37,5.65-4.85,12.57-8.01,19.97-9.13-5.38,3.04-8.4,7.99-8.4,12.15,0,6.69,4.07,5.88,5.27,4.9v38.62c.21,.48,.47,.94,.79,1.36,.54,.74,1.25,1.34,2.06,1.75,.82,.41,1.72,.62,2.64,.61,4.07,0,9.35-4.6,9.35-4.6v-31.26c0-3.18-2.42-7.02-4.84-8.34,0,0,4.48-.79,7.94,1.84,.65-.79,1.34-1.54,2.07-2.26,8.07-7.85,15.68-10.09,22.01-11.21,0,0-11.52,8.97-11.52,21.01,0,8.95,.23,30.78,.23,30.78,4.27,4.09,10.63-1.82,16.37-7.65Z"/>
  <path class="cls-2" d="M141.2,75.14c0,36.5-29.59,66.1-66.1,66.1S9,111.64,9,75.14,38.6,9.04,75.1,9.04s66.1,29.59,66.1,66.1Zm-66.1,61.54c33.99,0,61.54-27.55,61.54-61.54S109.09,13.6,75.1,13.6,13.56,41.15,13.56,75.14s27.55,61.54,61.54,61.54Z"/>
</svg>